<?xml version="1.0" encoding="utf-8"?>
<!-- Generator: Adobe Illustrator 24.0.0, SVG Export Plug-In . SVG Version: 6.00 Build 0)  -->
<svg version="1.1" id="Laag_1" xmlns="http://www.w3.org/2000/svg" xmlns:xlink="http://www.w3.org/1999/xlink" x="0px" y="0px"
	 viewBox="0 0 256 262" style="enable-background:new 0 0 256 262;" xml:space="preserve">
<style type="text/css">
	.st0{fill:#fff;}
</style>
<path class="st0" d="M255.9,133.5c0,39.7-14.2,73.2-38.9,96c-21.6,20-51.2,31.6-86.5,31.6c-51.1,0-95.2-29.3-116.6-72
	C5.1,171.5,0,151.6,0,130.6c0-21,5.1-40.9,13.9-58.6C35.4,29.3,79.5,0,130.5,0c35.2,0,64.7,12.9,87.3,33.9l-36.8,36
	c-9.4-8.8-26-19.4-50.5-19.4c-34.5,0-63.8,22.8-74.4,54.3c-2.6,8.1-4.2,16.8-4.2,25.8c0,9,1.6,17.7,4.4,25.8
	c10.4,31.5,39.8,54.2,74.3,54.2c19.4,0,34.2-5.4,45.3-13.1c17.4-12.2,25.2-30.3,26.7-42.4h-72v-48.4h122.6
	C255,114.9,255.9,122.7,255.9,133.5z"/>
</svg>
